<svg height="480pt" viewBox="0 -56 480.02946 480" width="480pt" xmlns="http://www.w3.org/2000/svg"><path d="m16 8.015625h384c4.417969 0 8 3.582031 8 8v272c0 4.417969-3.582031 8-8 8h-384c-4.417969 0-8-3.582031-8-8v-272c0-4.417969 3.582031-8 8-8zm0 0" fill="#44ffe8"/><path d="m304 328.015625v32h-192v-32zm0 0" fill="#787680"/><path d="m184 296.015625h48v32h-48zm0 0" fill="#acabb1"/><path d="m408 232.015625c29.917969-.039063 55.882812 20.636719 62.546875 49.800781 6.667969 29.167969-7.738281 59.066406-34.703125 72.03125s-59.3125 5.542969-77.929688-17.878906c-18.617187-23.421875-18.546874-56.609375.164063-79.953125 12.140625-15.160156 30.503906-23.988281 49.921875-24zm0 0" fill="#ffda44"/><path d="m288 88.015625c7.890625-.003906 14.609375 5.746094 15.820312 13.542969 1.210938 7.796875-3.445312 15.316406-10.96875 17.703125-7.519531 2.390625-15.660156-1.058594-19.171874-8.128907-1.125-2.199218-1.703126-4.644531-1.679688-7.117187.027344-8.828125 7.175781-15.972656 16-16zm0 0" fill="#ff5023"/><g fill="#2d2d30"><path d="m416 224.488281v-208.472656c0-8.835937-7.164062-16-16-16h-384c-8.835938 0-16 7.164063-16 16v272c0 8.835937 7.164062 16 16 16h160v16h-64c-4.417969 0-8 3.582031-8 8v32c0 4.417969 3.582031 8 8 8h192c4.417969 0 8-3.582031 8-8v-32c0-4.417969-3.582031-8-8-8h-64v-16h96.472656c4.171875 37.46875 36.542969 65.375 74.21875 63.980469 37.675782-1.394532 67.894532-31.617188 69.289063-69.289063 1.394531-37.675781-26.511719-70.046875-63.980469-74.21875zm-16-208.472656v208.472656c-17.546875 1.980469-33.75 10.355469-45.511719 23.527344h-338.488281v-232zm-384 248h327.601562c-3.773437 7.515625-6.1875 15.640625-7.128906 24h-320.472656zm280 88h-176v-16h176zm-72-32h-32v-16h32zm184 32c-30.929688 0-56-25.074219-56-56 0-30.929687 25.070312-56 56-56s56 25.070313 56 56c-.035156 30.914063-25.085938 55.964844-56 56zm0 0"/><path d="m400 291.734375-20.441406 13.601563 8.882812 13.3125 24-16c2.214844-1.480469 3.550782-3.96875 3.558594-6.632813v-40h-16zm0 0"/><path d="m40 40.015625h16v-16h-24c-4.417969 0-8 3.582031-8 8v32h16zm0 0"/><path d="m376 64.015625h16v-32c0-4.417969-3.582031-8-8-8h-24v16h16zm0 0"/><path d="m72 224.015625h256v-16h-248v-136h-16v144c0 4.417969 3.582031 8 8 8zm0 0"/><path d="m137.238281 162.085938 34.640625 20.800781c2.648438 1.589843 5.972656 1.515625 8.546875-.191407l91.628907-60.863281c4.363281 3.964844 10.046874 6.171875 15.945312 6.183594 13.253906 0 24-10.746094 24-24s-10.746094-24-24-24-24 10.746094-24 24c.027344 1.238281.152344 2.476563.375 3.695313l-88.589844 58.839843-35.664062-21.390625c-3.148438-1.894531-7.179688-1.398437-9.777344 1.199219l-32 32 11.3125 11.3125zm150.761719-66.070313c4.417969 0 8 3.582031 8 8s-3.582031 8-8 8-8-3.582031-8-8 3.582031-8 8-8zm0 0"/><path d="m256 144.015625h16v16h-16zm0 0"/><path d="m136 184.015625h16v16h-16zm0 0"/><path d="m224 168.015625h16v16h-16zm0 0"/><path d="m280 184.015625h16v16h-16zm0 0"/></g></svg>