<?xml version="1.0" encoding="utf-8"?>
<!-- Generator: Adobe Illustrator 22.0.1, SVG Export Plug-In . SVG Version: 6.00 Build 0)  -->
<svg xmlns="http://www.w3.org/2000/svg" xmlns:xlink="http://www.w3.org/1999/xlink" version="1.1" id="Layer_1" x="0px" y="0px" viewBox="0 0 256 256" style="enable-background:new 0 0 256 256;" xml:space="preserve" width="512" height="512">
<style type="text/css">
	.st0{fill:#3A312A;}
	.st1{fill:#D7E057;}
	.st2{fill:#F16C7A;}
	.st3{fill:#FCE8CB;}
	.st4{fill:#87796F;}
	.st5{fill:#8AC6DD;}
	.st6{fill:#CE4E61;}
	.st7{fill:#6CA8BF;}
	.st8{fill:#B9C239;}
	.st9{fill:#DECAAD;}
	.st10{fill:#695B51;}
	.st11{fill-rule:evenodd;clip-rule:evenodd;fill:#FCE8CB;}
	.st12{fill:#F5978A;}
	.st13{fill:#68A8BC;}
	.st14{fill:#B9BC39;}
	.st15{fill:#6B5B51;}
	.st16{fill:#D34E5C;}
	.st17{fill-rule:evenodd;clip-rule:evenodd;fill:#87796F;}
	.st18{fill-rule:evenodd;clip-rule:evenodd;fill:#F16C7A;}
</style>
<g>
	<g>
		<g>
			<rect x="116.026" y="194.761" class="st4" width="23.548" height="26.323"/>
		</g>
	</g>
	<g>
		<g>
			<path class="st0" d="M139.574,193.261h-23.549c-0.828,0-1.5,0.672-1.5,1.5v26.323c0,0.828,0.672,1.5,1.5,1.5h23.549     c0.828,0,1.5-0.672,1.5-1.5v-26.323C141.074,193.933,140.402,193.261,139.574,193.261z M138.074,219.584h-20.549v-23.323h20.549     V219.584z"/>
		</g>
	</g>
	<g>
		<g>
			<path class="st4" d="M145.355,221.084h-35.109c-9.632,0-17.44,7.808-17.44,17.44h69.99     C162.795,228.892,154.987,221.084,145.355,221.084z"/>
		</g>
	</g>
	<g>
		<g>
			<path class="st0" d="M145.354,219.584h-35.109c-10.443,0-18.939,8.497-18.939,18.94c0,0.828,0.672,1.5,1.5,1.5h69.989     c0.828,0,1.5-0.672,1.5-1.5C164.295,228.081,155.798,219.584,145.354,219.584z M94.376,237.024     c0.758-8.089,7.586-14.44,15.869-14.44h35.109c8.283,0,15.112,6.352,15.87,14.44H94.376z"/>
		</g>
	</g>
	<g>
		<g>
			<path class="st4" d="M224.521,15.644H31.079c-10.095,0-18.279,8.184-18.279,18.279v142.559c0,10.096,8.184,18.279,18.279,18.279     h193.441c10.095,0,18.279-8.184,18.279-18.279V33.923C242.8,23.828,234.616,15.644,224.521,15.644z"/>
		</g>
	</g>
	<g>
		<g>
			<path class="st0" d="M224.521,14.144h-46.585c-0.828,0-1.5,0.672-1.5,1.5s0.672,1.5,1.5,1.5h46.585     c9.252,0,16.779,7.527,16.779,16.779v142.559c0,9.252-7.527,16.779-16.779,16.779H31.079c-9.252,0-16.779-7.527-16.779-16.779     V33.923c0-9.252,7.527-16.779,16.779-16.779h132.584c0.828,0,1.5-0.672,1.5-1.5s-0.672-1.5-1.5-1.5H31.079     c-10.906,0-19.779,8.873-19.779,19.779v142.559c0,10.906,8.873,19.779,19.779,19.779h193.441     c10.906,0,19.779-8.873,19.779-19.779V33.923C244.3,23.017,235.427,14.144,224.521,14.144z"/>
		</g>
	</g>
	<g>
		<g>
			<path class="st3" d="M216.35,29.167H39.25c-6.9,0-12.49,5.6-12.49,12.5v127.07c0,1.41,0.23,2.77,0.67,4.04     c1.67,4.92,6.33,8.46,11.82,8.46h177.1c6.9,0,12.49-5.6,12.49-12.5V41.667C228.84,34.767,223.25,29.167,216.35,29.167z"/>
		</g>
	</g>
	<g>
		<g>
			<path class="st0" d="M216.35,27.667H39.25c-7.714,0-13.99,6.28-13.99,14v33.479c0,0.828,0.672,1.5,1.5,1.5s1.5-0.672,1.5-1.5     V41.667c0-6.065,4.931-11,10.99-11h177.1c6.06,0,10.99,4.935,10.99,11v127.07c0,6.065-4.931,11-10.99,11H39.25     c-4.71,0-8.889-2.991-10.403-7.45c-0.39-1.126-0.587-2.32-0.587-3.55V90.021c0-0.828-0.672-1.5-1.5-1.5s-1.5,0.672-1.5,1.5     v78.716c0,1.564,0.253,3.088,0.749,4.522c1.925,5.669,7.246,9.478,13.241,9.478h177.1c7.714,0,13.99-6.28,13.99-14V41.667     C230.34,33.947,224.063,27.667,216.35,27.667z"/>
		</g>
	</g>
	<g>
		<g>
			<path class="st9" d="M216.34,30.664h-14.99c6.06,0,10.99,4.939,10.99,11v127.07c0,6.07-4.93,11-10.99,11h15     c6.06,0,10.99-4.93,10.99-11V41.664C227.34,35.614,222.39,30.664,216.34,30.664z"/>
		</g>
	</g>
	<g>
		<g>
			<rect x="129" y="196.264" class="st10" width="9.07" height="23.32"/>
		</g>
	</g>
	<g>
		<g>
			<path class="st10" d="M145.35,222.584h-9.07c8.29,0,15.12,6.35,15.87,14.439h9.07C160.47,228.934,153.64,222.584,145.35,222.584z     "/>
		</g>
	</g>
	<g>
		<g>
			<path class="st1" d="M115.038,47.064H57.932c-3.663,0-6.632,2.969-6.632,6.632v51.256c0,3.663,2.969,6.632,6.632,6.632h57.106     c3.663,0,6.632-2.97,6.632-6.632V53.696C121.67,50.033,118.701,47.064,115.038,47.064z"/>
		</g>
	</g>
	<g>
		<g>
			<path class="st0" d="M115.038,45.563H57.932c-4.484,0-8.132,3.648-8.132,8.133v51.256c0,4.484,3.647,8.132,8.132,8.132h57.106     c4.484,0,8.132-3.647,8.132-8.132V53.696C123.17,49.212,119.522,45.563,115.038,45.563z M120.17,104.952     c0,2.83-2.302,5.132-5.132,5.132H57.932c-2.83,0-5.132-2.302-5.132-5.132V53.696c0-2.83,2.302-5.133,5.132-5.133h57.106     c2.83,0,5.132,2.303,5.132,5.133V104.952z"/>
		</g>
	</g>
	<g>
		<g>
			<path class="st2" d="M115.038,123.854H57.932c-3.663,0-6.632,2.97-6.632,6.632v25.986c0,3.663,2.969,6.632,6.632,6.632h57.106     c3.663,0,6.632-2.969,6.632-6.632v-25.986C121.67,126.823,118.701,123.854,115.038,123.854z"/>
		</g>
	</g>
	<g>
		<g>
			<path class="st0" d="M115.038,122.354H57.932c-4.484,0-8.132,3.648-8.132,8.133v25.985c0,4.484,3.647,8.132,8.132,8.132h57.106     c4.484,0,8.132-3.647,8.132-8.132v-25.985C123.17,126.002,119.522,122.354,115.038,122.354z M120.17,156.472     c0,2.83-2.302,5.132-5.132,5.132H57.932c-2.83,0-5.132-2.302-5.132-5.132v-25.985c0-2.83,2.302-5.133,5.132-5.133h57.106     c2.83,0,5.132,2.303,5.132,5.133V156.472z"/>
		</g>
	</g>
	<g>
		<g>
			<path class="st2" d="M197.668,47.064h-57.106c-3.663,0-6.632,2.969-6.632,6.632v8.876c0,3.663,2.969,6.632,6.632,6.632h57.106     c3.663,0,6.632-2.97,6.632-6.632v-8.876C204.3,50.033,201.331,47.064,197.668,47.064z"/>
		</g>
	</g>
	<g>
		<g>
			<path class="st0" d="M197.668,45.563h-57.105c-4.484,0-8.133,3.648-8.133,8.133v8.876c0,4.484,3.648,8.132,8.133,8.132h57.105     c4.484,0,8.132-3.647,8.132-8.132v-8.876C205.8,49.212,202.152,45.563,197.668,45.563z M202.8,62.572     c0,2.83-2.302,5.132-5.132,5.132h-57.105c-2.83,0-5.133-2.302-5.133-5.132v-8.876c0-2.83,2.303-5.133,5.133-5.133h57.105     c2.83,0,5.132,2.303,5.132,5.133V62.572z"/>
		</g>
	</g>
	<g>
		<g>
			<path class="st1" d="M197.668,81.464h-57.106c-3.663,0-6.632,2.969-6.632,6.632v68.376c0,3.663,2.969,6.632,6.632,6.632h57.106     c3.663,0,6.632-2.969,6.632-6.632V88.096C204.3,84.433,201.331,81.464,197.668,81.464z"/>
		</g>
	</g>
	<g>
		<g>
			<path class="st0" d="M197.668,79.964h-57.105c-4.484,0-8.133,3.647-8.133,8.132v68.376c0,4.484,3.648,8.132,8.133,8.132h57.105     c4.484,0,8.132-3.647,8.132-8.132V88.096C205.8,83.611,202.152,79.964,197.668,79.964z M202.8,156.472     c0,2.83-2.302,5.132-5.132,5.132h-57.105c-2.83,0-5.133-2.302-5.133-5.132V88.096c0-2.83,2.303-5.132,5.133-5.132h57.105     c2.83,0,5.132,2.302,5.132,5.132V156.472z"/>
		</g>
	</g>
</g>
</svg>
