<svg height="480pt" viewBox="0 0 480 480" width="480pt" xmlns="http://www.w3.org/2000/svg"><path d="m440 72h-368v240h400v-208c0-17.671875-14.328125-32-32-32zm0 0" fill="#5aaae7"/><path d="m8 32v200h176v-200zm0 0" fill="#ffde55"/><path d="m168 8c8.824219.027344 15.972656 7.175781 16 16v8h-176v-8c.027344-8.824219 7.175781-15.972656 16-16zm0 0" fill="#acabb1"/><path d="m72 232h-64v32c.027344 8.824219 7.175781 15.972656 16 16h144c8.824219-.027344 15.972656-7.175781 16-16v-32zm0 0" fill="#acabb1"/><path d="m352 440v32h-160v-32zm0 0" fill="#787680"/><path d="m336 440h-128l8-64h112zm0 0" fill="#898890"/><path d="m472 312v32c-.050781 17.652344-14.347656 31.949219-32 32h-336c-17.652344-.050781-31.949219-14.347656-32-32v-32zm0 0" fill="#acabb1"/><path d="m408 48h-32c-4.417969 0-8-3.582031-8-8v-31.921875zm0 0" fill="#bcbec0"/><path d="m376 48c-4.417969 0-8-3.582031-8-8v-32h-128c-4.417969 0-8 3.582031-8 8v264h176v-232zm0 0" fill="#e6e7e8"/><path d="m330 392h-116l2-16h112zm0 0" fill="#787680"/><path d="m440 64h-8v16h8c13.253906 0 24 10.746094 24 24v200h-400v40c.027344 22.082031 17.917969 39.972656 40 40h102.9375l-6 48h-8.9375c-4.417969 0-8 3.582031-8 8v24h-32v16h240v-16h-32v-24c0-4.417969-3.582031-8-8-8h-8.9375l-6-48h102.9375c22.082031-.027344 39.972656-17.917969 40-40v-240c-.027344-22.082031-17.917969-39.972656-40-40zm-96 400h-144v-16h144zm-17.0625-32h-109.875l6-48h97.875zm113.0625-64h-336c-13.253906 0-24-10.746094-24-24v-24h384v24c0 13.253906-10.746094 24-24 24zm0 0"/><path d="m432 336h16v16h-16zm0 0"/><path d="m192 264v-240c0-13.253906-10.746094-24-24-24h-144c-13.253906 0-24 10.746094-24 24v240c0 13.253906 10.746094 24 24 24h144c13.253906 0 24-10.746094 24-24zm-16-40h-160v-184h160zm-152-208h144c4.417969 0 8 3.582031 8 8h-160c0-4.417969 3.582031-8 8-8zm-8 248v-24h160v24c0 4.417969-3.582031 8-8 8h-144c-4.417969 0-8-3.582031-8-8zm0 0"/><path d="m80 248h32v16h-32zm0 0"/><path d="m88 136h16v16h-16zm0 0"/><path d="m120 136h16v16h-16zm0 0"/><path d="m56 136h16v16h-16zm0 0"/><path d="m264 32h32v16h-32zm0 0"/><path d="m264 64h64v16h-64zm0 0"/><path d="m264 104h64v16h-64zm0 0"/><path d="m264 136h112v16h-112zm0 0"/><path d="m264 168h112v16h-112zm0 0"/><path d="m264 200h112v16h-112zm0 0"/><path d="m264 232h112v16h-112zm0 0"/><path d="m344 104h32v16h-32zm0 0"/><path d="m432 288v-16h-16v-224c0-2.125-.847656-4.164062-2.351562-5.664062l-40.074219-40c-1.496094-1.496094-3.527344-2.335938-5.644531-2.335938h-127.929688c-8.835938 0-16 7.164062-16 16v256h-16v16zm-56-260.640625 12.65625 12.640625h-12.65625zm-136-11.359375h120v24c0 8.835938 7.164062 16 16 16h24v216h-160zm0 0"/></svg>