<svg height="480pt" viewBox="0 0 480 480" width="480pt" xmlns="http://www.w3.org/2000/svg"><path d="m472 72v320c-.027344 8.824219-7.175781 15.972656-16 16h-352c-8.824219-.027344-15.972656-7.175781-16-16v-320zm0 0" fill="#5aaae7"/><path d="m40 424 32 48h-64zm0 0" fill="#cc7400"/><path d="m72 200-32 48-32-48zm0 0" fill="#cc7400"/><path d="m72 200v272l-32-48-32 48v-272l32 48zm0 0" fill="#ee8700"/><path d="m232 200h-160v272h192v-272zm0 0" fill="#ff9811"/><path d="m280 136h144v80h-144zm0 0" fill="#ffd422"/><path d="m472 24v48h-384v-48c.027344-8.824219 7.175781-15.972656 16-16h352c8.824219.027344 15.972656 7.175781 16 16zm0 0" fill="#ff6243"/><path d="m264 192h-24v-24c.054688-24.933594-12.820312-48.113281-34.019531-61.238281-21.195313-13.125-47.683594-14.324219-69.980469-3.160157-22.296875-11.164062-48.785156-9.964843-69.980469 3.160157-21.199219 13.125-34.074219 36.304687-34.019531 61.238281v24h-24c-4.417969 0-8 3.582031-8 8v272c0 4.417969 3.582031 8 8 8h256c4.417969 0 8-3.582031 8-8v-272c0-4.417969-3.582031-8-8-8zm-96-80c30.910156.039062 55.960938 25.089844 56 56v24h-48v-24c-.015625-20.488281-8.792969-39.996094-24.113281-53.601562 5.226562-1.582032 10.652343-2.390626 16.113281-2.398438zm-32 10.113281c15.023438 10.449219 23.988281 27.585938 24 45.886719v24h-48v-24c.011719-18.300781 8.976562-35.4375 24-45.886719zm-88 45.886719c-.011719-17.707031 8.363281-34.375 22.574219-44.9375 14.210937-10.5625 32.585937-13.777344 49.539062-8.664062-15.320312 13.605468-24.097656 33.113281-24.113281 53.601562v24h-48zm-1.34375 251.558594c-1.570312-2.097656-4.035156-3.332032-6.65625-3.332032s-5.085938 1.234376-6.65625 3.332032l-17.34375 26.042968v-219.203124l17.34375 26.015624c1.484375 2.226563 3.980469 3.5625 6.65625 3.5625s5.171875-1.335937 6.65625-3.5625l17.34375-26.015624v219.203124zm10.398438 44.441406h-34.109376l17.054688-25.601562zm-34.109376-256h34.109376l-17.054688 25.601562zm233.054688 256h-176v-256h16v40h16v-40h112v40h16v-40h16zm0 0"/><path d="m128 32h16v16h-16zm0 0"/><path d="m160 32h16v16h-16zm0 0"/><path d="m192 32h16v16h-16zm0 0"/><path d="m456 0h-352c-13.253906 0-24 10.746094-24 24v48c0 4.417969 3.582031 8 8 8h376v312c0 4.417969-3.582031 8-8 8h-168v16h168c13.253906 0 24-10.746094 24-24v-368c0-13.253906-10.746094-24-24-24zm8 64h-368v-40c0-4.417969 3.582031-8 8-8h352c4.417969 0 8 3.582031 8 8zm0 0"/><path d="m416 312h-76.6875l10.34375-10.34375-11.3125-11.3125-24 24c-3.121094 3.125-3.121094 8.1875 0 11.3125l24 24 11.3125-11.3125-10.34375-10.34375h76.6875zm0 0"/><path d="m432 216v-80c0-4.417969-3.582031-8-8-8h-144c-4.417969 0-8 3.582031-8 8v40h16v-32h128v64h-120v16h128c4.417969 0 8-3.582031 8-8zm0 0"/><path d="m344 168h16v16h-16zm0 0"/><path d="m376 168h16v16h-16zm0 0"/><path d="m312 168h16v16h-16zm0 0"/></svg>