<?xml version="1.0" encoding="iso-8859-1"?>
<!-- Generator: Adobe Illustrator 21.0.0, SVG Export Plug-In . SVG Version: 6.00 Build 0)  -->
<svg version="1.1" id="Capa_1" xmlns="http://www.w3.org/2000/svg" xmlns:xlink="http://www.w3.org/1999/xlink" x="0px" y="0px"
	 viewBox="0 0 512.052 512.052" style="enable-background:new 0 0 512.052 512.052;" xml:space="preserve">
<g>
	<g transform="translate(1 1)">
		<g>
			<path style="fill:#607D8B;" d="M400.092,246.467V280.6c0,18.851-15.282,34.133-34.133,34.133H41.692
				c-18.851,0-34.133-15.282-34.133-34.133v-34.133c0-18.851,15.282-34.133,34.133-34.133V203.8h324.267v8.533
				C384.81,212.333,400.092,227.615,400.092,246.467z"/>
			<path style="fill:#607D8B;" d="M400.092,41.667V75.8c0,18.851-15.282,34.133-34.133,34.133h-8.533v8.533H41.692v-8.533
				c-18.851,0-34.133-15.282-34.133-34.133V41.667c0-18.851,15.282-34.133,34.133-34.133h324.267
				C384.81,7.533,400.092,22.815,400.092,41.667z"/>
			<path style="fill:#607D8B;" d="M400.092,144.067V178.2c0,18.851-15.282,34.133-34.133,34.133H41.692
				c-18.834-0.042-34.091-15.3-34.133-34.133v-34.133c0.042-18.834,15.3-34.091,34.133-34.133h324.267
				C384.81,109.933,400.092,125.215,400.092,144.067z"/>
		</g>
		<g>
			<path style="fill:#CFD8DC;" d="M374.492,246.467V280.6c0,18.851-15.282,34.133-34.133,34.133H41.692
				c-18.851,0-34.133-15.282-34.133-34.133v-34.133c0-18.851,15.282-34.133,34.133-34.133c-8.3,0.004-16.314-3.032-22.528-8.533
				h321.195v8.533C359.21,212.333,374.492,227.615,374.492,246.467z"/>
			<path style="fill:#CFD8DC;" d="M374.492,41.667V75.8c0.006,18.523-14.763,33.67-33.28,34.133h-9.387v8.533H19.164
				c6.223-5.488,14.231-8.521,22.528-8.533c-18.851,0-34.133-15.282-34.133-34.133V41.667c0-18.851,15.282-34.133,34.133-34.133
				h298.667C359.21,7.533,374.492,22.815,374.492,41.667z"/>
			<path style="fill:#CFD8DC;" d="M374.492,144.067V178.2c-0.042,18.834-15.3,34.091-34.133,34.133H41.692
				c-18.834-0.042-34.091-15.3-34.133-34.133v-34.133c0.042-18.834,15.3-34.091,34.133-34.133h299.52
				C359.702,110.459,374.435,125.569,374.492,144.067z"/>
		</g>
		<g>
			<circle style="fill:#E91E63;" cx="75.826" cy="58.733" r="17.067"/>
			<circle style="fill:#E91E63;" cx="75.826" cy="263.533" r="17.067"/>
		</g>
		<circle style="fill:#FFEB3A;" cx="75.826" cy="161.133" r="17.067"/>
		<path style="fill:#2296F3;" d="M279.602,316.099l-24.576-24.576c-25.62,10.833-55.25,5.059-74.928-14.601
			c-19.678-19.66-25.48-49.284-14.672-74.914l33.877,33.792c6.382,6.849,15.993,9.668,25.064,7.352
			c9.07-2.316,16.153-9.399,18.469-18.469c2.316-9.07-0.503-18.682-7.352-25.064l-33.792-33.877
			c25.633-10.846,55.283-5.058,74.954,14.632c19.672,19.69,25.431,49.346,14.561,74.968l42.667,42.667l24.149,24.149l136.96,136.96
			c4.968,4.961,7.68,11.744,7.502,18.762c-0.177,7.018-3.229,13.655-8.441,18.358c-10.722,8.99-26.577,8.132-36.267-1.963
			L339.932,376.429L279.602,316.099z"/>
		<path style="fill:#1566C0;" d="M494.044,496.237c-10.722,8.99-26.577,8.132-36.267-1.963l-17.067-17.067
			c9.689,10.095,25.544,10.953,36.267,1.963c5.212-4.703,8.264-11.34,8.441-18.358c0.177-7.018-2.535-13.801-7.502-18.762
			l17.067,17.067c4.968,4.961,7.68,11.744,7.502,18.762C502.308,484.897,499.256,491.534,494.044,496.237z"/>
		<polygon style="fill:#CFD8DC;" points="436.103,244.077 478.343,213.869 502.492,177.688 478.343,153.539 442.162,177.688 
			411.954,219.928 294.62,337.261 318.77,361.411 		"/>
		<path style="fill:#C52828;" d="M339.591,376.771l-7.083,7.083c-3.177,3.219-7.51,5.032-12.032,5.035h-12.117
			c-9.426,0-17.067,7.641-17.067,17.067v12.032c-0.01,4.529-1.785,8.876-4.949,12.117l-67.413,67.413
			c-6.708,6.572-17.441,6.572-24.149,0l-36.267-36.267c-6.571-6.676-6.571-17.388,0-24.064l67.413-67.413
			c3.21-3.221,7.57-5.033,12.117-5.035h12.032c9.426,0,17.067-7.641,17.067-17.067V335.64c0.002-4.548,1.814-8.907,5.035-12.117
			l7.083-7.083c6.555-6.412,16.985-6.562,23.723-0.341l0.341,0.341h0.085l20.224,20.309l15.957,15.957
			c3.195,3.189,4.991,7.518,4.991,12.032C344.582,369.253,342.786,373.582,339.591,376.771z"/>
		<path style="fill:#F44335;" d="M323.634,360.899l-7.083,7.083c-3.2,3.174-7.525,4.953-12.032,4.949h-12.032
			c-9.426,0-17.067,7.641-17.067,17.067v12.117c-0.026,4.518-1.836,8.842-5.035,12.032l-67.413,67.413
			c-3.201,3.205-7.545,5.005-12.075,5.005c-4.53,0-8.874-1.801-12.075-5.005l-20.309-20.309c-6.571-6.676-6.571-17.388,0-24.064
			l67.413-67.413c3.21-3.221,7.57-5.033,12.117-5.035h12.032c9.426,0,17.067-7.641,17.067-17.067V335.64
			c0.002-4.548,1.814-8.907,5.035-12.117l7.083-7.083c6.555-6.412,16.985-6.562,23.723-0.341l0.341,0.341l20.309,20.309
			c3.205,3.201,5.005,7.545,5.005,12.075S326.838,357.698,323.634,360.899z"/>
	</g>
	<g>
		<path d="M358.426,51.2h-17.067c-4.713,0-8.533,3.821-8.533,8.533s3.82,8.533,8.533,8.533h17.067c4.713,0,8.533-3.821,8.533-8.533
			S363.139,51.2,358.426,51.2z"/>
		<path d="M307.226,51.2h-17.067c-4.713,0-8.533,3.821-8.533,8.533s3.82,8.533,8.533,8.533h17.067c4.713,0,8.533-3.821,8.533-8.533
			S311.939,51.2,307.226,51.2z"/>
		<path d="M76.826,34.133c-14.138,0-25.6,11.462-25.6,25.6s11.462,25.6,25.6,25.6s25.6-11.462,25.6-25.6
			S90.964,34.133,76.826,34.133z M76.826,68.267c-4.713,0-8.533-3.821-8.533-8.533s3.821-8.533,8.533-8.533
			c4.713,0,8.533,3.821,8.533,8.533S81.539,68.267,76.826,68.267z"/>
		<path d="M341.359,170.667h17.067c4.713,0,8.533-3.821,8.533-8.533c0-4.713-3.821-8.533-8.533-8.533h-17.067
			c-4.713,0-8.533,3.821-8.533,8.533C332.826,166.846,336.646,170.667,341.359,170.667z"/>
		<path d="M76.826,136.533c-14.138,0-25.6,11.462-25.6,25.6c0,14.138,11.462,25.6,25.6,25.6s25.6-11.462,25.6-25.6
			C102.426,147.995,90.964,136.533,76.826,136.533z M76.826,170.667c-4.713,0-8.533-3.821-8.533-8.533
			c0-4.713,3.821-8.533,8.533-8.533c4.713,0,8.533,3.821,8.533,8.533C85.359,166.846,81.539,170.667,76.826,170.667z"/>
		<path d="M42.692,324.267h128c4.713,0,8.533-3.821,8.533-8.533c0-4.713-3.82-8.533-8.533-8.533h-128
			c-14.138,0-25.6-11.462-25.6-25.6v-34.133c0-14.138,11.462-25.6,25.6-25.6h110.174c-2.596,25.981,8.164,51.505,28.575,67.787
			s47.688,21.099,72.442,12.794l14.652,14.652l-1.399,1.408c-4.817,4.789-7.518,11.306-7.501,18.099v12.066
			c0,4.713-3.821,8.533-8.533,8.533h-12.066c-6.795-0.017-13.315,2.684-18.108,7.501l-67.413,67.413
			c-9.994,9.997-9.994,26.202,0,36.198l36.198,36.207c4.801,4.802,11.313,7.5,18.103,7.5s13.302-2.698,18.103-7.5l67.413-67.413
			c4.813-4.791,7.511-11.308,7.492-18.099v-12.075c0-4.713,3.82-8.533,8.533-8.533h12.075c6.791,0.017,13.307-2.681,18.099-7.492
			l1.399-1.408l111.787,111.787c6.769,6.84,15.977,10.71,25.6,10.761c8.281,0.042,16.281-3,22.443-8.533
			c6.944-6.277,11.005-15.129,11.235-24.486c0.229-9.357-3.395-18.398-10.023-25.007L371.089,323.157l71.552-71.543l41.66-29.798
			c0.842-0.598,1.565-1.348,2.133-2.21l24.158-36.181c2.257-3.385,1.811-7.893-1.067-10.769l-24.149-24.149
			c-2.876-2.877-7.384-3.324-10.769-1.067l-36.181,24.149c-0.858,0.571-1.604,1.294-2.202,2.133l-29.807,41.677l-5.888,5.888
			c-2.371-3.01-5.138-5.685-8.226-7.953c10.856-7.99,17.283-20.654,17.323-34.133v-34.133c-0.038-13.482-6.469-26.147-17.331-34.133
			c10.863-7.986,17.293-20.651,17.331-34.133V42.667C409.598,19.114,390.512,0.028,366.959,0H42.692
			C19.14,0.028,0.054,19.114,0.026,42.667V76.8c0.038,13.482,6.469,26.147,17.331,34.133c-10.863,7.986-17.293,20.651-17.331,34.133
			V179.2c0.038,13.482,6.469,26.147,17.331,34.133c-10.863,7.986-17.293,20.651-17.331,34.133V281.6
			C0.054,305.152,19.14,324.238,42.692,324.267z M252.715,284.655c-19.731,8.375-42.436,5.536-59.498-7.44
			s-25.862-34.098-23.062-55.349h3.098l21.018,20.966c8.572,8.872,21.263,12.428,33.197,9.302
			c11.933-3.126,21.252-12.447,24.373-24.382c3.122-11.935-0.439-24.625-9.314-33.193l-23.74-23.799
			c21.608-3.865,43.597,4.421,57.281,21.585c13.684,17.164,16.863,40.446,8.281,60.65c-1.347,3.196-0.625,6.89,1.826,9.344
			l36.634,36.634l-8.192,8.192h-10.052c-7.015-3.848-15.425-4.195-22.733-0.939l-19.772-19.772
			C259.599,284.013,255.906,283.302,252.715,284.655z M321.442,381.338h-12.075c-14.138,0-25.6,11.462-25.6,25.6v12.049
			c0,2.263-0.9,4.433-2.5,6.033l-67.413,67.413c-3.332,3.331-8.734,3.331-12.066,0l-36.215-36.181
			c-3.331-3.332-3.331-8.734,0-12.066l67.413-67.413c1.595-1.608,3.768-2.509,6.033-2.5h12.066c6.79,0,13.301-2.697,18.102-7.498
			c4.801-4.801,7.498-11.312,7.498-18.102v-12.066c-0.006-2.264,0.894-4.437,2.5-6.033l7.066-7.066
			c3.332-3.331,8.734-3.331,12.066,0l5.973,5.973v0.051l24.149,24.149h0.051l5.973,5.973c3.331,3.332,3.331,8.734,0,12.066
			l-7.066,7.074C325.824,380.392,323.685,381.306,321.442,381.338z M489.95,466.15c3.31,3.274,5.123,7.77,5.009,12.425
			c-0.095,4.707-2.13,9.166-5.623,12.322c-7.353,5.926-18.026,5.205-24.516-1.655L351.787,376.218
			c4.367-9.678,2.306-21.048-5.18-28.578l12.416-12.416L489.95,466.15z M449.195,184.917l29.065-19.371l14.251,14.251
			l-19.405,29.065l-40.96,29.303c-0.205,0.145-0.299,0.358-0.486,0.512c-0.188,0.154-0.41,0.222-0.589,0.393l-78.071,78.071
			l-18.466,18.432l-12.083-12.083l96.563-96.503c0.144-0.188,0.275-0.384,0.393-0.589c0.154-0.188,0.375-0.282,0.521-0.478
			L449.195,184.917z M388.284,233.557l-53.41,53.385l-32.768-32.742c3.507-10.394,4.752-21.418,3.652-32.333h61.201
			c8.622,0.048,16.64,4.432,21.333,11.665L388.284,233.557z M17.092,76.8V42.667c0-14.138,11.462-25.6,25.6-25.6h324.267
			c14.138,0,25.6,11.462,25.6,25.6V76.8c0,14.138-11.462,25.6-25.6,25.6H42.692C28.554,102.4,17.092,90.938,17.092,76.8z
			 M17.092,179.2v-34.133c0-14.139,11.462-25.6,25.6-25.6h324.267c14.138,0,25.6,11.462,25.6,25.6V179.2
			c0,14.138-11.462,25.6-25.6,25.6h-65.033c-6.837-20.2-21.787-36.636-41.251-45.351c-19.464-8.715-41.68-8.921-61.303-0.567
			c-2.613,1.104-4.506,3.435-5.052,6.218c-0.546,2.784,0.327,5.656,2.33,7.665l33.826,33.911c3.224,3.179,5.04,7.517,5.04,12.045
			c0,4.528-1.815,8.866-5.04,12.045c-6.74,6.47-17.384,6.47-24.124,0l-33.877-33.792c-2.018-1.998-4.892-2.87-7.68-2.33
			c-2.785,0.545-5.116,2.438-6.221,5.052c-0.708,1.707-1.143,3.413-1.707,5.12H42.692c-6.792,0-13.307-2.699-18.108-7.504
			C19.783,192.508,17.088,185.993,17.092,179.2z"/>
		<path d="M51.226,264.533c0,14.138,11.462,25.6,25.6,25.6s25.6-11.462,25.6-25.6c0-14.139-11.462-25.6-25.6-25.6
			S51.226,250.395,51.226,264.533z M85.359,264.533c0,4.713-3.82,8.533-8.533,8.533c-4.713,0-8.533-3.82-8.533-8.533
			S72.113,256,76.826,256C81.539,256,85.359,259.821,85.359,264.533z"/>
	</g>
</g>
<g>
</g>
<g>
</g>
<g>
</g>
<g>
</g>
<g>
</g>
<g>
</g>
<g>
</g>
<g>
</g>
<g>
</g>
<g>
</g>
<g>
</g>
<g>
</g>
<g>
</g>
<g>
</g>
<g>
</g>
</svg>
